<svg id="visual" viewBox="0 0 200 200" width="200" height="200" xmlns="http://www.w3.org/2000/svg" xmlns:xlink="http://www.w3.org/1999/xlink" version="1.1">
    <g transform="translate(109.29228964691882 88.32187786238563)">
        <path d="M45.6 -52C58.3 -43.8 67.1 -28.6 68.5 -13.2C69.9 2.3 64 17.9 55.9 32.6C47.8 47.4 37.6 61.3 22.3 71.2C7 81.1 -13.5 87.1 -32.4 82.9C-51.4 78.7 -69 64.3 -78.6 46.1C-88.3 28 -89.9 5.9 -83.3 -11.8C-76.7 -29.4 -61.8 -42.7 -46.5 -50.4C-31.3 -58.1 -15.6 -60.3 0.4 -60.8C16.5 -61.3 33 -60.2 45.6 -52" fill="#6E57E0">
        </path>
    </g>
</svg>